<?xml version="1.0" standalone="no"?><!DOCTYPE svg PUBLIC "-//W3C//DTD SVG 1.1//EN" "http://www.w3.org/Graphics/SVG/1.1/DTD/svg11.dtd"><svg t="1680406483857" class="icon" viewBox="0 0 1024 1024" version="1.1" xmlns="http://www.w3.org/2000/svg" p-id="2948" xmlns:xlink="http://www.w3.org/1999/xlink" width="200" height="200"><path d="M95.711875 232.921887l832.971245 0c16.954137 0 30.699186-13.745049 30.699186-30.699186s-13.745049-30.699186-30.699186-30.699186l-832.971245 0c-16.954137 0-30.699186 13.745049-30.699186 30.699186S78.757738 232.921887 95.711875 232.921887z" p-id="2949"></path><path d="M928.683121 790.623765l-832.971245 0c-16.954137 0-30.699186 13.745049-30.699186 30.699186s13.745049 30.699186 30.699186 30.699186l832.971245 0c16.954137 0 30.699186-13.745049 30.699186-30.699186S945.638281 790.623765 928.683121 790.623765z" p-id="2950"></path><path d="M163.250084 398.697491l132.0065 0c16.954137 0 30.699186-13.745049 30.699186-30.699186s-13.745049-30.699186-30.699186-30.699186l-132.0065 0c-16.954137 0-30.699186 13.745049-30.699186 30.699186S146.295947 398.697491 163.250084 398.697491z" p-id="2951"></path><path d="M450.799126 398.697491l132.0065 0c16.954137 0 30.699186-13.745049 30.699186-30.699186s-13.745049-30.699186-30.699186-30.699186l-132.0065 0c-16.954137 0-30.699186 13.745049-30.699186 30.699186S433.844989 398.697491 450.799126 398.697491z" p-id="2952"></path><path d="M872.40128 337.299119l-130.983193 0c-16.954137 0-30.699186 13.745049-30.699186 30.699186s13.745049 30.699186 30.699186 30.699186l130.983193 0c16.954137 0 30.699186-13.745049 30.699186-30.699186S889.35644 337.299119 872.40128 337.299119z" p-id="2953"></path><path d="M163.250084 700.57282l132.0065 0c16.954137 0 30.699186-13.745049 30.699186-30.699186s-13.745049-30.699186-30.699186-30.699186l-132.0065 0c-16.954137 0-30.699186 13.745049-30.699186 30.699186S146.295947 700.57282 163.250084 700.57282z" p-id="2954"></path><path d="M450.799126 700.57282l132.0065 0c16.954137 0 30.699186-13.745049 30.699186-30.699186s-13.745049-30.699186-30.699186-30.699186l-132.0065 0c-16.954137 0-30.699186 13.745049-30.699186 30.699186S433.844989 700.57282 450.799126 700.57282z" p-id="2955"></path><path d="M741.418087 700.57282l130.983193 0c16.954137 0 30.699186-13.745049 30.699186-30.699186s-13.745049-30.699186-30.699186-30.699186l-130.983193 0c-16.954137 0-30.699186 13.745049-30.699186 30.699186S724.463949 700.57282 741.418087 700.57282z" p-id="2956"></path><path d="M453.869045 513.307785c0-16.954137-13.745049-30.699186-30.699186-30.699186l-129.959887 0c-16.954137 0-30.699186 13.745049-30.699186 30.699186s13.745049 30.699186 30.699186 30.699186l129.959887 0C440.125019 544.006971 453.869045 530.262946 453.869045 513.307785z" p-id="2957"></path><path d="M745.511311 544.006971c16.954137 0 30.699186-13.745049 30.699186-30.699186s-13.745049-30.699186-30.699186-30.699186l-129.959887 0c-16.954137 0-30.699186 13.745049-30.699186 30.699186s13.745049 30.699186 30.699186 30.699186L745.511311 544.006971z" p-id="2958"></path></svg>