<?xml version="1.0" standalone="no"?><!DOCTYPE svg PUBLIC "-//W3C//DTD SVG 1.1//EN" "http://www.w3.org/Graphics/SVG/1.1/DTD/svg11.dtd"><svg t="1680011616137" class="icon" viewBox="0 0 1024 1024" version="1.1" xmlns="http://www.w3.org/2000/svg" p-id="1064" xmlns:xlink="http://www.w3.org/1999/xlink" width="200" height="200"><path d="M506.1 960.1C258 960.1 56.2 758.3 56.2 510.2S258.1 60.3 506.1 60.3 956 262.2 956 510.2 754.2 960.1 506.1 960.1z m0-848.5c-219.8 0-398.6 178.8-398.6 398.6s178.8 398.6 398.6 398.6S904.8 730 904.8 510.2 725.9 111.6 506.1 111.6z" fill="#1C1C1C" p-id="1065"></path><path d="M414.3 677.3c-14.1 0-25.6-11.5-25.6-25.6V381.1c0-14.1 11.5-25.6 25.6-25.6 14.1 0 25.6 11.5 25.6 25.6v270.6c0.1 14.1-11.4 25.6-25.6 25.6zM593.7 677.3c-14.1 0-25.6-11.5-25.6-25.6V381.1c0-14.1 11.5-25.6 25.6-25.6 14.1 0 25.6 11.5 25.6 25.6v270.6c0 14.1-11.5 25.6-25.6 25.6z" fill="#D8BA3D" p-id="1066"></path></svg>